<?xml version="1.0" encoding="UTF-8" standalone="no"?>
<!-- Created with Inkscape (http://www.inkscape.org/) -->

<svg
   width="141.5919mm"
   height="122.80626mm"
   viewBox="0 0 501.70361 435.14028"
   id="svg2"
   version="1.1"
   inkscape:version="1.4.2 (ebf0e940d0, 2025-05-08)"
   sodipodi:docname="Nix_Snowflake_Logo_Mouse.svg"
   xml:space="preserve"
   xmlns:inkscape="http://www.inkscape.org/namespaces/inkscape"
   xmlns:sodipodi="http://sodipodi.sourceforge.net/DTD/sodipodi-0.dtd"
   xmlns:xlink="http://www.w3.org/1999/xlink"
   xmlns="http://www.w3.org/2000/svg"
   xmlns:svg="http://www.w3.org/2000/svg"
   xmlns:rdf="http://www.w3.org/1999/02/22-rdf-syntax-ns#"
   xmlns:cc="http://creativecommons.org/ns#"
   xmlns:dc="http://purl.org/dc/elements/1.1/"><defs
     id="defs4"><linearGradient
       id="linearGradient11"
       inkscape:collect="always"><stop
         style="stop-color:#b77d26;stop-opacity:1;"
         offset="0"
         id="stop11" /><stop
         style="stop-color:#eac996;stop-opacity:1;"
         offset="1"
         id="stop12" /></linearGradient><linearGradient
       inkscape:collect="always"
       id="linearGradient5"><stop
         style="stop-color:#859fd5;stop-opacity:1;"
         offset="0"
         id="stop3" /><stop
         style="stop-color:#7ebae4;stop-opacity:1"
         offset="1"
         id="stop5" /></linearGradient><linearGradient
       inkscape:collect="always"
       id="linearGradient5562"><stop
         style="stop-color:#699ad7;stop-opacity:1"
         offset="0"
         id="stop5564" /><stop
         id="stop5566"
         offset="0.24345198"
         style="stop-color:#7eb1dd;stop-opacity:1" /><stop
         style="stop-color:#7ebae4;stop-opacity:1"
         offset="1"
         id="stop5568" /></linearGradient><linearGradient
       inkscape:collect="always"
       id="linearGradient5053"><stop
         style="stop-color:#415e9a;stop-opacity:1"
         offset="0"
         id="stop5055" /><stop
         id="stop5057"
         offset="0.23168644"
         style="stop-color:#4a6baf;stop-opacity:1" /><stop
         style="stop-color:#5277c3;stop-opacity:1"
         offset="1"
         id="stop5059" /></linearGradient><linearGradient
       id="linearGradient5960"
       inkscape:collect="always"><stop
         id="stop5962"
         offset="0"
         style="stop-color:#637ddf;stop-opacity:1" /><stop
         style="stop-color:#649afa;stop-opacity:1"
         offset="0.23168644"
         id="stop5964" /><stop
         id="stop5966"
         offset="1"
         style="stop-color:#719efa;stop-opacity:1" /></linearGradient><linearGradient
       inkscape:collect="always"
       id="linearGradient5867"><stop
         style="stop-color:#7363df;stop-opacity:1"
         offset="0"
         id="stop5869" /><stop
         id="stop5871"
         offset="0.23168644"
         style="stop-color:#6478fa;stop-opacity:1" /><stop
         style="stop-color:#719efa;stop-opacity:1"
         offset="1"
         id="stop5873" /></linearGradient><linearGradient
       y2="515.97058"
       x2="282.26105"
       y1="338.62445"
       x1="213.95642"
       gradientTransform="translate(-197.75174,-337.1451)"
       gradientUnits="userSpaceOnUse"
       id="linearGradient5855-8"
       xlink:href="#linearGradient5867"
       inkscape:collect="always" /><linearGradient
       y2="247.58188"
       x2="-702.75317"
       y1="102.74675"
       x1="-775.20807"
       gradientTransform="translate(983.36076,601.38885)"
       gradientUnits="userSpaceOnUse"
       id="linearGradient4544"
       xlink:href="#linearGradient5960"
       inkscape:collect="always" /><clipPath
       id="clipPath4501"
       clipPathUnits="userSpaceOnUse"><circle
         r="241.06563"
         cy="686.09473"
         cx="335.13995"
         id="circle4503"
         style="color:#000000;clip-rule:nonzero;display:inline;overflow:visible;visibility:visible;opacity:1;isolation:auto;mix-blend-mode:normal;color-interpolation:sRGB;color-interpolation-filters:linearRGB;solid-color:#000000;solid-opacity:1;fill:#adadad;fill-opacity:1;fill-rule:evenodd;stroke:none;stroke-width:3;stroke-linecap:butt;stroke-linejoin:round;stroke-miterlimit:4;stroke-dasharray:none;stroke-dashoffset:0;stroke-opacity:1;marker:none;color-rendering:auto;image-rendering:auto;shape-rendering:auto;text-rendering:auto;enable-background:accumulate" /></clipPath><clipPath
       id="clipPath5410"
       clipPathUnits="userSpaceOnUse"><circle
         r="241.13741"
         cy="340.98975"
         cx="335.98114"
         id="circle5412"
         style="color:#000000;clip-rule:nonzero;display:inline;overflow:visible;visibility:visible;opacity:1;isolation:auto;mix-blend-mode:normal;color-interpolation:sRGB;color-interpolation-filters:linearRGB;solid-color:#000000;solid-opacity:1;fill:#ffffff;fill-opacity:1;fill-rule:evenodd;stroke:none;stroke-width:3;stroke-linecap:butt;stroke-linejoin:round;stroke-miterlimit:4;stroke-dasharray:none;stroke-dashoffset:0;stroke-opacity:1;marker:none;color-rendering:auto;image-rendering:auto;shape-rendering:auto;text-rendering:auto;enable-background:accumulate" /></clipPath><linearGradient
       inkscape:collect="always"
       xlink:href="#linearGradient5053"
       id="linearGradient5137"
       gradientUnits="userSpaceOnUse"
       gradientTransform="translate(864.55062,-2197.497)"
       x1="-584.19934"
       y1="782.33563"
       x2="-496.29703"
       y2="937.71399" /><linearGradient
       inkscape:collect="always"
       xlink:href="#linearGradient5053"
       id="linearGradient5147"
       gradientUnits="userSpaceOnUse"
       gradientTransform="translate(864.55062,-2197.497)"
       x1="-584.19934"
       y1="782.33563"
       x2="-496.29703"
       y2="937.71399" /><linearGradient
       inkscape:collect="always"
       xlink:href="#linearGradient5562"
       id="linearGradient5162"
       gradientUnits="userSpaceOnUse"
       gradientTransform="translate(70.505061,-1761.3076)"
       x1="200.59668"
       y1="351.41116"
       x2="290.08701"
       y2="506.18814" /><linearGradient
       inkscape:collect="always"
       xlink:href="#linearGradient5562"
       id="linearGradient5172"
       gradientUnits="userSpaceOnUse"
       gradientTransform="translate(70.505061,-1761.3076)"
       x1="200.59668"
       y1="351.41116"
       x2="290.08701"
       y2="506.18814" /><linearGradient
       inkscape:collect="always"
       xlink:href="#linearGradient5562"
       id="linearGradient5182"
       gradientUnits="userSpaceOnUse"
       gradientTransform="translate(70.505061,-1761.3076)"
       x1="200.59668"
       y1="351.41116"
       x2="290.08701"
       y2="506.18814" /><linearGradient
       y2="506.18814"
       x2="290.08701"
       y1="351.41116"
       x1="200.59668"
       gradientTransform="translate(70.505061,-1761.3076)"
       gradientUnits="userSpaceOnUse"
       id="linearGradient5201"
       xlink:href="#linearGradient5562"
       inkscape:collect="always" /><linearGradient
       y2="937.71399"
       x2="-496.29703"
       y1="782.33563"
       x1="-584.19934"
       gradientTransform="translate(864.55062,-2197.497)"
       gradientUnits="userSpaceOnUse"
       id="linearGradient5205"
       xlink:href="#linearGradient5053"
       inkscape:collect="always" /><clipPath
       clipPathUnits="userSpaceOnUse"
       id="clipPath24"><g
         inkscape:label="Clip"
         id="use24"><g
           id="g2"
           inkscape:label="circleg5"
           transform="matrix(1.3416011,0,0,1.3416011,-32.924089,-56.997787)"><ellipse
             style="opacity:1;fill:none;fill-opacity:1;stroke:#000000;stroke-width:0.669051;stroke-linecap:round;stroke-linejoin:round;stroke-dasharray:none;stroke-opacity:1;paint-order:stroke fill markers"
             id="ellipse1"
             cy="147.21384"
             cx="105.91108"
             rx="26.192787"
             ry="25.502029" /><path
             style="baseline-shift:baseline;display:inline;overflow:visible;opacity:1;vector-effect:none;fill:#000000;fill-opacity:1;stroke-linecap:round;stroke-linejoin:round;paint-order:stroke fill markers;enable-background:accumulate;stop-color:#000000;stop-opacity:1"
             d="m 105.79688,119.67773 c -15.712219,0 -28.205253,12.523 -28.205255,27.91599 -4e-6,15.39299 12.493032,27.8262 28.205255,27.8262 15.71221,0 28.34188,-12.43321 28.34188,-27.8262 0,-15.39299 -12.62967,-27.91599 -28.34188,-27.91599 z m 0,1.00405 c 15.06187,0 27.24609,12.15357 27.24609,26.86705 0,14.71348 -12.18505,26.03393 -27.24609,26.19169 -14.922938,0.15631 -26.733185,-11.25892 -27.246099,-26.19169 -0.218615,-6.36467 2.520983,-12.8093 6.687061,-17.48914 4.992782,-5.60849 12.348336,-9.37791 20.559038,-9.37791 z"
             id="path2"
             sodipodi:nodetypes="sssssssssss" /></g></g></clipPath><inkscape:path-effect
       effect="copy_rotate"
       starting_point="208.84526,135.40268"
       origin="198.11181,135.40268"
       id="path-effect23"
       is_visible="true"
       lpeversion="1.2"
       lpesatellites=""
       method="normal"
       num_copies="19"
       starting_angle="0"
       rotation_angle="18.947368"
       gap="-0.01"
       copies_to_360="true"
       mirror_copies="false"
       split_items="false"
       link_styles="false" /><linearGradient
       inkscape:collect="always"
       xlink:href="#linearGradient11"
       id="linearGradient12"
       x1="92.023262"
       y1="161.67136"
       x2="112.37114"
       y2="131.93381"
       gradientUnits="userSpaceOnUse"
       gradientTransform="matrix(1.2097672,0,0,1.2097672,-26.063236,-26.751503)" /><linearGradient
       inkscape:collect="always"
       xlink:href="#linearGradient5"
       id="linearGradient14"
       x1="123.47323"
       y1="116.27534"
       x2="132.78062"
       y2="131.72394"
       gradientUnits="userSpaceOnUse"
       gradientTransform="matrix(1.0032933,0,0,1.0032933,-2.0558194,0.8389599)" /><linearGradient
       inkscape:collect="always"
       xlink:href="#linearGradient5"
       id="linearGradient16"
       x1="123.47323"
       y1="116.27534"
       x2="132.78062"
       y2="131.72394"
       gradientUnits="userSpaceOnUse"
       gradientTransform="matrix(1.0032933,0,0,1.0032933,-2.0558194,0.8389599)" /></defs><sodipodi:namedview
     id="base"
     pagecolor="#707070"
     bordercolor="#666666"
     borderopacity="1.0"
     inkscape:pageopacity="0.0"
     inkscape:pageshadow="2"
     inkscape:zoom="1.8020711"
     inkscape:cx="285.22737"
     inkscape:cy="175.35379"
     inkscape:document-units="px"
     inkscape:current-layer="g10"
     showgrid="false"
     inkscape:window-width="1707"
     inkscape:window-height="1409"
     inkscape:window-x="0"
     inkscape:window-y="0"
     inkscape:window-maximized="0"
     inkscape:snap-global="true"
     fit-margin-top="0"
     fit-margin-left="0"
     fit-margin-right="0"
     fit-margin-bottom="0"
     inkscape:showpageshadow="0"
     inkscape:pagecheckerboard="1"
     inkscape:deskcolor="#505050"
     showguides="true" /><metadata
     id="metadata7"><rdf:RDF><cc:Work
         rdf:about=""><dc:format>image/svg+xml</dc:format><dc:type
           rdf:resource="http://purl.org/dc/dcmitype/StillImage" /></cc:Work></rdf:RDF></metadata><g
     inkscape:label="print-logo"
     inkscape:groupmode="layer"
     id="layer1"
     style="display:inline"
     transform="translate(-156.33871,933.1905)" /><g
     id="g1"
     transform="translate(30.139837)"><g
       id="g24"
       clip-path="url(#clipPath24)"
       transform="matrix(5.818645,0,0,5.818645,-414.12996,-602.59043)" /><g
       id="g4"
       style="display:inline"
       inkscape:label="mouse.g4"
       transform="matrix(5.818645,0,0,5.818645,-414.12996,-602.59043)"><path
         d="m 104.36003,151.52542 c 0.0758,-0.1148 0.68004,-0.37056 0.7538,-0.49178 0.17462,-0.12871 0.46087,-0.69929 0.72995,-1.30659 0.35477,-0.80062 0.6797,-1.6651 0.6797,-1.6651 0.48525,-0.27628 1.06536,-0.44187 1.21914,-1.10486 0.3745,-0.32736 0.84284,-0.42009 1.33345,-0.45717 0.6965,-0.1856 0.68407,-0.57377 0.57144,-0.99057 -0.14783,-0.29443 -0.24394,-0.58458 -0.55356,-0.89249 -0.1506,-0.18266 -0.33709,-0.24038 -0.55427,-0.30338 -2.85997,-0.76428 -2.61359,1.71 -3.84498,2.64361 l -2.705,1.33345"
         style="display:inline;fill:#b77d26;fill-opacity:1;stroke:#ffffff;stroke-width:0.423419;stroke-linecap:butt;stroke-linejoin:round;stroke-dasharray:none;stroke-opacity:1;paint-order:fill markers stroke"
         id="path1-6"
         sodipodi:nodetypes="ccccccccccc" /><g
         id="g10"
         transform="matrix(0.69719206,1.2161814,-1.2161814,0.69719206,191.23524,-120.35079)"><path
           sodipodi:nodetypes="cccccccccc"
           inkscape:connector-curvature="0"
           id="path4873"
           d="m 122.86319,107.26063 19.69244,33.8714 -9.00173,0.1119 -5.25745,-9.10015 -5.23907,9.08361 -4.47276,0.0121 -2.30297,-3.95076 7.4641,-12.92561 -5.35473,-9.25336 z"
           style="color:#000000;clip-rule:nonzero;display:inline;overflow:visible;visibility:visible;isolation:auto;mix-blend-mode:normal;color-interpolation:sRGB;color-interpolation-filters:linearRGB;solid-color:#000000;solid-opacity:1;fill:url(#linearGradient14);fill-rule:evenodd;stroke:url(#linearGradient16);stroke-width:0.345938;stroke-linecap:round;stroke-linejoin:round;stroke-miterlimit:4;stroke-dasharray:none;stroke-dashoffset:0;paint-order:stroke fill markers;color-rendering:auto;image-rendering:auto;shape-rendering:auto;text-rendering:auto;enable-background:accumulate" /><path
           sodipodi:nodetypes="cccccccccc"
           inkscape:connector-curvature="0"
           id="path4873-8"
           d="m 122.86319,107.26058 19.69244,33.87142 -9.00174,0.11202 -5.25747,-9.10016 -5.23905,9.08361 -4.47275,0.0121 -2.30299,-3.95076 7.46412,-12.92559 -5.35474,-9.25338 z"
           style="color:#000000;clip-rule:nonzero;display:inline;overflow:visible;visibility:visible;isolation:auto;mix-blend-mode:normal;color-interpolation:sRGB;color-interpolation-filters:linearRGB;solid-color:#000000;solid-opacity:1;fill:none;fill-opacity:1;fill-rule:evenodd;stroke:#ffffff;stroke-width:0.417131;stroke-linecap:round;stroke-linejoin:round;stroke-miterlimit:4;stroke-dasharray:none;stroke-dashoffset:0;stroke-opacity:1;paint-order:stroke fill markers;color-rendering:auto;image-rendering:auto;shape-rendering:auto;text-rendering:auto;enable-background:accumulate" /></g><path
         style="display:inline;opacity:1;fill:url(#linearGradient12);stroke:#ffffff;stroke-width:0.423419;stroke-linecap:butt;stroke-linejoin:round;stroke-dasharray:none;stroke-opacity:1;paint-order:fill markers stroke"
         d="m 83.050961,172.84068 v 5e-5 l 2.095419,1.10485 c -2.0694,1.87641 -0.7773,2.71851 1.066759,3.39077 l 8.156113,0.47428 c 0.470698,-0.0121 0.397818,-0.64846 0.293058,-0.95305 -0.316264,-0.91964 -1.196906,-1.93729 -4.008378,-1.46713 -0.757911,0.14033 -1.403033,-0.15376 -2.116781,-0.37807 0.884765,-0.38455 1.745582,-1.29591 2.666897,-0.87627 l 2.034048,0.88698 c 0.741999,0.42189 1.399114,0.94723 1.627444,1.88762 0.0662,0.27266 0.85366,0.57158 1.25324,0.50187 l 5.62679,-0.66625 c 0.49568,-0.24658 0.31328,-0.69241 0.12442,-0.99831 -0.82101,-1.3298 -2.22125,-1.25062 -3.64363,-0.90452 -1.82234,0.44331 -2.63222,-0.38479 -2.75526,-0.51696 3.52572,-2.54948 5.94893,-5.4724 3.23841,-10.13417 l -4e-5,-3e-5 c 2.34996,-1.81441 3.90861,-5.19433 4.22893,-8.32799 2.61866,-0.81015 5.4099,-3.41152 6.24817,-5.62905 0.48525,-0.27629 1.06537,-0.44187 1.21915,-1.10485 0.37449,-0.32738 0.84284,-0.42011 1.33345,-0.45718 0.6965,-0.18561 0.68407,-0.57378 0.57144,-0.99056 -0.14783,-0.29445 -0.24395,-0.76212 -0.55356,-1.07004 -0.15061,-0.18266 -0.3371,-0.24036 -0.55427,-0.30338 -2.85997,-0.76427 -2.56202,1.52243 -3.79341,2.45606 -0.74663,0.98757 -2.15812,1.95297 -3.30312,2.18989 0.46575,-1.42499 0.93044,-3.11303 0.52539,-4.53823 0.79668,-1.79777 2.42612,-3.41749 3.97963,-4.56614 1.15811,-0.8654 1.78219,-2.59849 1.94406,-4.41061 0.0224,-0.25087 0.0358,-0.50326 0.0408,-0.75508 0.15939,-1.08603 -0.0155,-2.06063 -0.38098,-2.97169 0.36348,-1.04541 -0.81702,-1.65663 -1.63824,-0.80007 -1.97284,0.047 -3.39723,0.75101 -4.99393,1.41073 -0.97166,0.40147 -1.78179,0.14942 -2.82674,0.48179 l -1.55157,0.73628 c -3.21884,-2.1719 -6.373477,1.0524 -3.7051,2.67371 0.20037,0.12175 0.0757,0.11904 0.34409,0.21968 -0.26374,-0.0833 -0.17422,-0.002 -0.41094,-0.1012 -7.553324,-3.14321 -6.953316,9.76961 0.38117,6.23719 -3.212791,9.75793 -7.3959,7.06725 -11.505768,12.80111 -2.482091,2.73741 -4.238689,6.20032 -3.771757,11.88675"
         id="path2-0"
         sodipodi:nodetypes="cccccsccccsccssccccccccsscccsscccsccscsccc" /><path
         style="opacity:1;fill:#ffffff;fill-opacity:1;stroke:none;stroke-width:1.09011;stroke-linecap:butt;stroke-linejoin:round;stroke-dasharray:none;stroke-opacity:1;paint-order:fill markers stroke"
         d="m 101.02966,138.63121 c 0.33327,-2.28382 1.29069,-2.91036 2.87227,-1.87965 0.20902,0.0894 0.28088,-0.0268 0.40676,-0.062 -0.0163,0.13053 -0.28284,0.31761 -0.74359,0.14781 -0.15366,-0.0565 -0.14534,0.1727 -0.12384,0.19211 0.36773,0.33191 0.16524,0.68193 -0.20919,0.64214 -0.0499,-0.0655 -0.14846,-0.10163 -0.19849,-0.15708 -0.86737,-0.95884 -1.68227,-0.42298 -2.00388,1.1166 z"
         id="path5"
         sodipodi:nodetypes="cccsscscc" /><path
         style="opacity:1;fill:none;fill-opacity:1;stroke:#ffffff;stroke-width:0.083474;stroke-linecap:round;stroke-linejoin:round;stroke-dasharray:none;stroke-opacity:1;paint-order:fill markers stroke"
         d="m 108.93538,134.63009 c -0.13546,0.16153 -0.47572,0.83156 -0.47105,0.9913"
         id="path6-8"
         sodipodi:nodetypes="cc" /><path
         style="opacity:1;fill:none;fill-opacity:1;stroke:#ffffff;stroke-width:0.083474;stroke-linecap:round;stroke-linejoin:round;stroke-dasharray:none;stroke-opacity:1;paint-order:fill markers stroke"
         d="m 108.63893,134.41989 c -0.18936,0.21004 -0.80992,1.24118 -0.83217,1.57881"
         id="path6-93"
         sodipodi:nodetypes="cc" /><path
         style="opacity:1;fill:none;fill-opacity:1;stroke:#ffffff;stroke-width:0.083474;stroke-linecap:round;stroke-linejoin:round;stroke-dasharray:none;stroke-opacity:1;paint-order:fill markers stroke"
         d="m 108.46106,134.1396 c -0.2702,0.1777 -1.11714,1.35977 -1.15019,1.68121"
         id="path6-7"
         sodipodi:nodetypes="cc" /><path
         style="opacity:1;fill:none;fill-opacity:1;stroke:#ffffff;stroke-width:0.083474;stroke-linecap:round;stroke-linejoin:round;stroke-dasharray:none;stroke-opacity:1;paint-order:fill markers stroke"
         d="m 108.26163,133.91322 c -0.39957,0.16154 -1.5214,1.35439 -1.66224,1.95072"
         id="path6-9"
         sodipodi:nodetypes="cc" /><path
         style="opacity:1;fill:none;fill-opacity:1;stroke:#ffffff;stroke-width:0.083474;stroke-linecap:round;stroke-linejoin:round;stroke-dasharray:none;stroke-opacity:1;paint-order:fill markers stroke"
         d="m 108.0649,133.70139 c -0.2756,0.1238 -0.50806,0.27637 -0.69743,0.45769"
         id="path6"
         sodipodi:nodetypes="cc" /><path
         style="opacity:1;fill:none;fill-opacity:1;stroke:#ffffff;stroke-width:0.168158;stroke-linecap:round;stroke-linejoin:round;stroke-dasharray:none;stroke-opacity:1;paint-order:fill markers stroke"
         d="m 109.02161,133.195 c 0.19241,-0.15856 0.38627,-0.2295 0.58832,-0.25324 0.081,0.0422 0.13985,0.0207 0.17731,0.25302 0.021,0.13048 -0.003,0.27678 -0.0242,0.43644"
         id="path7"
         sodipodi:nodetypes="ccsc" /><path
         style="opacity:1;fill:#ffffff;fill-opacity:1;stroke:#ffffff;stroke-width:0.120976;stroke-linecap:round;stroke-linejoin:round;stroke-dasharray:none;stroke-opacity:1;paint-order:stroke fill markers"
         d="m 97.76194,138.69623 c -0.559,0.005 -1.08602,-0.0133 -1.62459,-0.11214 l -0.11214,0.0776 c -0.27984,0.0312 -0.75322,-0.0788 -1.20206,-0.0131 0.68289,-0.0354 1.18913,0.26737 1.75613,0.54484 0.59124,0.24275 1.25201,0.29426 1.98234,0.15454 -0.4987,-0.0639 -1.01256,-0.10936 -1.41115,-0.29567 0.39856,0.0569 0.76816,0.021 1.10878,-0.10754 -0.48592,0.0121 -0.94288,-0.0286 -1.37084,-0.12098 0.29554,0.009 0.58673,-0.0325 0.87357,-0.12759 z"
         id="path8"
         sodipodi:nodetypes="ccccccccccc" /><path
         style="baseline-shift:baseline;display:inline;overflow:visible;opacity:1;vector-effect:none;fill:#ffffff;stroke-width:1.20976;paint-order:stroke fill markers;enable-background:accumulate;stop-color:#000000;stop-opacity:1"
         d="m 91.187312,164.38464 v 0 c 1.019342,0.81823 1.412107,1.71491 1.756108,2.52108 0.34399,0.8062 0.370814,1.61625 0.113411,2.45971 -0.514798,1.68694 -1.988223,3.50649 -4.558415,5.59989 l 0.07797,0.0945 c 2.576863,-2.09884 4.262905,-3.92578 4.791823,-5.65898 0.264453,-0.86658 0.236477,-1.71131 -0.11815,-2.5424 -0.354617,-0.83109 -1.033246,-1.64747 -2.062754,-2.47387 z"
         id="path9"
         sodipodi:nodetypes="ccssccsscc" /><path
         style="opacity:1;fill:none;fill-opacity:1;stroke:#ffffff;stroke-width:0.120976;stroke-linecap:round;stroke-linejoin:miter;stroke-dasharray:none;stroke-opacity:1;paint-order:stroke fill markers"
         d="m 112.15502,147.25309 c -0.29093,-0.33271 -1.17799,-0.48237 -1.46924,-0.33275"
         id="path13"
         sodipodi:nodetypes="cc" /><path
         style="opacity:1;fill:none;fill-opacity:1;stroke:#ffffff;stroke-width:0.120976;stroke-linecap:round;stroke-linejoin:miter;stroke-dasharray:none;stroke-opacity:1;paint-order:stroke fill markers"
         d="m 112.31061,147.68271 c -0.38754,-0.41219 -1.23848,-0.60461 -1.43723,-0.34136"
         id="path14"
         sodipodi:nodetypes="cc" /><path
         style="opacity:1;fill:none;fill-opacity:1;stroke:#ffffff;stroke-width:0.120976;stroke-linecap:round;stroke-linejoin:miter;stroke-dasharray:none;stroke-opacity:1;paint-order:stroke fill markers"
         d="m 112.52645,148.31881 c -0.21602,-0.54548 -1.36985,-0.92307 -1.51434,-0.54856"
         id="path15"
         sodipodi:nodetypes="cc" /><path
         style="opacity:1;fill:#ffffff;fill-opacity:1;stroke:#ffffff;stroke-width:0.120976;stroke-linecap:round;stroke-linejoin:round;stroke-dasharray:none;stroke-opacity:1;paint-order:stroke fill markers"
         d="m 95.78981,144.64529 c 0.60737,-0.2155 1.20769,-0.65362 1.75264,-1.16696 -0.28678,0.66223 -1.09361,1.31167 -1.91026,1.65517"
         id="path16"
         sodipodi:nodetypes="ccc" /><path
         style="opacity:1;fill:#ffffff;fill-opacity:1;stroke:#ffffff;stroke-width:0.120976;stroke-linecap:round;stroke-linejoin:round;stroke-dasharray:none;stroke-opacity:1;paint-order:stroke fill markers"
         d="m 98.25185,142.90845 c -0.10384,0.39441 -0.26091,0.75335 -0.4712,1.07682 0.56042,-0.42988 0.84501,-0.9653 0.9442,-1.53708 -0.14717,0.29615 -0.27038,0.58077 -0.46012,0.78468 z"
         id="path17"
         sodipodi:nodetypes="ccccc" /><path
         style="opacity:1;fill:#ffffff;fill-opacity:1;stroke:#ffffff;stroke-width:0.0705561;stroke-linecap:round;stroke-linejoin:round;stroke-dasharray:none;stroke-opacity:1;paint-order:stroke fill markers"
         d="m 98.24102,136.23551 c 0.67754,-0.53566 1.66582,-1.20167 2.75342,-1.56344 -0.69105,0.32335 -1.04738,0.59625 -0.56098,0.50998 -0.80958,0.24498 -1.48108,0.67609 -2.19244,1.05346 z"
         id="path18"
         sodipodi:nodetypes="cccc" /><path
         style="baseline-shift:baseline;display:inline;overflow:visible;opacity:1;vector-effect:none;fill:#ffffff;stroke-width:1.20976;stroke-linecap:round;stroke-linejoin:round;paint-order:stroke fill markers;enable-background:accumulate;stop-color:#000000;stop-opacity:1"
         d="m 97.26689,152.54687 c 0.96005,2.72464 3.96447,4.1132 6.69383,2.92347 0.0603,-0.0271 0.0877,-0.0976 0.0614,-0.15831 -0.0271,-0.0602 -0.0976,-0.0877 -0.1583,-0.0614 -2.58504,1.12682 -5.69003,-0.12972 -6.59699,-2.7037 -0.0465,-0.13731 -0.0499,-0.13702 0,0 z"
         id="path20"
         sodipodi:nodetypes="cccccc" /><path
         style="baseline-shift:baseline;display:inline;overflow:visible;opacity:1;vector-effect:none;fill:#ffffff;stroke-width:1.20976;stroke-linecap:round;stroke-linejoin:round;paint-order:stroke fill markers;enable-background:accumulate;stop-color:#000000;stop-opacity:1"
         d="m 93.044811,177.71331 c -0.102468,-0.70458 -0.431821,-1.4339 -1.302236,-1.43183 v -2e-5 c 0,0 -0.156532,0.006 0,0 0.571317,-0.0267 1.104667,0.63789 1.151943,1.42805"
         id="path21"
         sodipodi:nodetypes="ccccc" /><path
         style="baseline-shift:baseline;display:inline;overflow:visible;opacity:1;vector-effect:none;fill:#ffffff;stroke-width:1.20976;stroke-linecap:round;stroke-linejoin:round;paint-order:stroke fill markers;enable-background:accumulate;stop-color:#000000;stop-opacity:1"
         d="m 94.128532,177.74932 c -0.04876,-0.93782 -0.590609,-1.66583 -1.667957,-1.7851 l 1.1e-5,-2e-5 c -1.1e-5,-5e-5 -0.158429,-0.006 0,0 0.312553,0.0131 1.518866,0.59157 1.513241,1.77362"
         id="path22"
         sodipodi:nodetypes="cccsc" /><path
         style="baseline-shift:baseline;display:inline;overflow:visible;vector-effect:none;fill:#ffffff;stroke-width:1.43555;stroke-linecap:round;stroke-linejoin:round;paint-order:stroke fill markers;enable-background:accumulate;stop-color:#000000"
         d="m 100.56025,176.90439 c -0.18089,-0.69575 -0.59525,-1.31309 -1.46783,-1.31102 v -5e-5 c 0,0 -0.18574,0.007 0,0 0.5892,-0.0277 1.14435,0.56447 1.31644,1.33547"
         id="path21-3"
         sodipodi:nodetypes="ccccc" /><path
         style="baseline-shift:baseline;display:inline;overflow:visible;vector-effect:none;fill:#ffffff;stroke-width:1.43555;stroke-linecap:round;stroke-linejoin:round;paint-order:stroke fill markers;enable-background:accumulate;stop-color:#000000"
         d="m 101.56716,176.67293 c -0.25077,-0.75732 -0.85995,-1.30111 -1.85095,-1.41083 v 1e-5 c -1e-5,-6e-5 -0.18813,-0.003 0,0 0.33018,0.007 1.41918,0.47825 1.72775,1.46591"
         id="path22-5"
         sodipodi:nodetypes="cccsc" /><path
         style="baseline-shift:baseline;display:inline;overflow:visible;opacity:1;vector-effect:none;fill:#ffffff;stroke-width:2.04115;stroke-linecap:round;stroke-linejoin:bevel;paint-order:stroke fill markers;enable-background:accumulate;stop-color:#000000;stop-opacity:1"
         d="m 95.45124,165.03135 c -0.26214,0.0404 -0.2627,0.0374 0,0 0.31234,-0.0449 1.93824,-0.34054 3.24199,-0.87833 1.02242,-0.42174 0.54875,-0.45664 0.45636,-0.53426 -1.0985,0.61144 -2.98138,1.30945 -3.69835,1.41259 z"
         id="path26"
         sodipodi:nodetypes="ccscc" /><path
         d="m 80.536458,169.2594 c -8.929269,16.21378 -9.747792,-9.42765 2.774226,-22.27284 0.847763,-0.86965 0.201736,-1.12681 -0.53204,-0.56658 -14.983562,11.43965 -14.37348,44.41166 0.272317,26.4207"
         style="display:inline;fill:#b77d26;fill-opacity:1;stroke:#ffffff;stroke-width:0.483906;stroke-linecap:round;stroke-linejoin:round;stroke-dasharray:none;stroke-opacity:1;paint-order:fill markers stroke"
         id="path1-61"
         sodipodi:nodetypes="cssc" /><path
         style="baseline-shift:baseline;display:inline;overflow:visible;opacity:1;vector-effect:none;fill:#ffffff;stroke-width:1.20976;stroke-linecap:round;stroke-linejoin:round;paint-order:stroke fill markers;enable-background:accumulate;stop-color:#000000;stop-opacity:1"
         d="m 104.2524,150.86417 c -1.84494,0.42108 -2.74225,1.21977 -4.54284,-0.73344 -0.10057,-0.12193 -0.10025,-0.12213 0,0 1.6789,2.26994 3.14067,1.35359 4.90325,0.9081"
         id="path19"
         sodipodi:nodetypes="cccc" /><path
         id="path10"
         style="opacity:1;fill:#fba99b;stroke-width:1.46188;stroke-linecap:round;stroke-linejoin:round;paint-order:stroke markers fill"
         d="m 97.75137,141.45561 c 0,1.14826 -2.12569,2.78989 -3.963367,2.78989 -1.837684,0 -2.691467,-1.64163 -2.691463,-2.78989 6e-6,-2.10361 1.489741,-3.311 3.327407,-2.0791 1.526433,1.02325 3.327413,0.93084 3.327423,2.0791 z"
         sodipodi:nodetypes="sssss" /></g></g></svg>
