<?xml version="1.0" encoding="UTF-8" standalone="no"?>
<!-- Created with Inkscape (http://www.inkscape.org/) -->

<svg
   width="141.5919mm"
   height="122.80626mm"
   viewBox="0 0 501.70361 435.14028"
   id="svg2"
   version="1.1"
   inkscape:version="1.4.2 (ebf0e940d0, 2025-05-08)"
   sodipodi:docname="Nix_Snowflake_Logo.svg"
   xml:space="preserve"
   xmlns:inkscape="http://www.inkscape.org/namespaces/inkscape"
   xmlns:sodipodi="http://sodipodi.sourceforge.net/DTD/sodipodi-0.dtd"
   xmlns:xlink="http://www.w3.org/1999/xlink"
   xmlns="http://www.w3.org/2000/svg"
   xmlns:svg="http://www.w3.org/2000/svg"
   xmlns:rdf="http://www.w3.org/1999/02/22-rdf-syntax-ns#"
   xmlns:cc="http://creativecommons.org/ns#"
   xmlns:dc="http://purl.org/dc/elements/1.1/"><defs
     id="defs4"><linearGradient
       inkscape:collect="always"
       id="linearGradient5562"><stop
         style="stop-color:#699ad7;stop-opacity:1"
         offset="0"
         id="stop5564" /><stop
         id="stop5566"
         offset="0.24345198"
         style="stop-color:#7eb1dd;stop-opacity:1" /><stop
         style="stop-color:#7ebae4;stop-opacity:1"
         offset="1"
         id="stop5568" /></linearGradient><linearGradient
       inkscape:collect="always"
       id="linearGradient5053"><stop
         style="stop-color:#415e9a;stop-opacity:1"
         offset="0"
         id="stop5055" /><stop
         id="stop5057"
         offset="0.23168644"
         style="stop-color:#4a6baf;stop-opacity:1" /><stop
         style="stop-color:#5277c3;stop-opacity:1"
         offset="1"
         id="stop5059" /></linearGradient><linearGradient
       id="linearGradient5960"
       inkscape:collect="always"><stop
         id="stop5962"
         offset="0"
         style="stop-color:#637ddf;stop-opacity:1" /><stop
         style="stop-color:#649afa;stop-opacity:1"
         offset="0.23168644"
         id="stop5964" /><stop
         id="stop5966"
         offset="1"
         style="stop-color:#719efa;stop-opacity:1" /></linearGradient><linearGradient
       inkscape:collect="always"
       id="linearGradient5867"><stop
         style="stop-color:#7363df;stop-opacity:1"
         offset="0"
         id="stop5869" /><stop
         id="stop5871"
         offset="0.23168644"
         style="stop-color:#6478fa;stop-opacity:1" /><stop
         style="stop-color:#719efa;stop-opacity:1"
         offset="1"
         id="stop5873" /></linearGradient><linearGradient
       y2="515.97058"
       x2="282.26105"
       y1="338.62445"
       x1="213.95642"
       gradientTransform="translate(-197.75174,-337.1451)"
       gradientUnits="userSpaceOnUse"
       id="linearGradient5855-8"
       xlink:href="#linearGradient5867"
       inkscape:collect="always" /><linearGradient
       y2="247.58188"
       x2="-702.75317"
       y1="102.74675"
       x1="-775.20807"
       gradientTransform="translate(983.36076,601.38885)"
       gradientUnits="userSpaceOnUse"
       id="linearGradient4544"
       xlink:href="#linearGradient5960"
       inkscape:collect="always" /><clipPath
       id="clipPath4501"
       clipPathUnits="userSpaceOnUse"><circle
         r="241.06563"
         cy="686.09473"
         cx="335.13995"
         id="circle4503"
         style="color:#000000;clip-rule:nonzero;display:inline;overflow:visible;visibility:visible;opacity:1;isolation:auto;mix-blend-mode:normal;color-interpolation:sRGB;color-interpolation-filters:linearRGB;solid-color:#000000;solid-opacity:1;fill:#adadad;fill-opacity:1;fill-rule:evenodd;stroke:none;stroke-width:3;stroke-linecap:butt;stroke-linejoin:round;stroke-miterlimit:4;stroke-dasharray:none;stroke-dashoffset:0;stroke-opacity:1;marker:none;color-rendering:auto;image-rendering:auto;shape-rendering:auto;text-rendering:auto;enable-background:accumulate" /></clipPath><clipPath
       id="clipPath5410"
       clipPathUnits="userSpaceOnUse"><circle
         r="241.13741"
         cy="340.98975"
         cx="335.98114"
         id="circle5412"
         style="color:#000000;clip-rule:nonzero;display:inline;overflow:visible;visibility:visible;opacity:1;isolation:auto;mix-blend-mode:normal;color-interpolation:sRGB;color-interpolation-filters:linearRGB;solid-color:#000000;solid-opacity:1;fill:#ffffff;fill-opacity:1;fill-rule:evenodd;stroke:none;stroke-width:3;stroke-linecap:butt;stroke-linejoin:round;stroke-miterlimit:4;stroke-dasharray:none;stroke-dashoffset:0;stroke-opacity:1;marker:none;color-rendering:auto;image-rendering:auto;shape-rendering:auto;text-rendering:auto;enable-background:accumulate" /></clipPath><linearGradient
       inkscape:collect="always"
       xlink:href="#linearGradient5053"
       id="linearGradient5137"
       gradientUnits="userSpaceOnUse"
       gradientTransform="translate(864.55062,-2197.497)"
       x1="-584.19934"
       y1="782.33563"
       x2="-496.29703"
       y2="937.71399" /><linearGradient
       inkscape:collect="always"
       xlink:href="#linearGradient5053"
       id="linearGradient5147"
       gradientUnits="userSpaceOnUse"
       gradientTransform="translate(864.55062,-2197.497)"
       x1="-584.19934"
       y1="782.33563"
       x2="-496.29703"
       y2="937.71399" /><linearGradient
       inkscape:collect="always"
       xlink:href="#linearGradient5562"
       id="linearGradient5162"
       gradientUnits="userSpaceOnUse"
       gradientTransform="translate(70.505061,-1761.3076)"
       x1="200.59668"
       y1="351.41116"
       x2="290.08701"
       y2="506.18814" /><linearGradient
       inkscape:collect="always"
       xlink:href="#linearGradient5562"
       id="linearGradient5172"
       gradientUnits="userSpaceOnUse"
       gradientTransform="translate(70.505061,-1761.3076)"
       x1="200.59668"
       y1="351.41116"
       x2="290.08701"
       y2="506.18814" /><linearGradient
       inkscape:collect="always"
       xlink:href="#linearGradient5562"
       id="linearGradient5182"
       gradientUnits="userSpaceOnUse"
       gradientTransform="translate(70.505061,-1761.3076)"
       x1="200.59668"
       y1="351.41116"
       x2="290.08701"
       y2="506.18814" /><linearGradient
       y2="506.18814"
       x2="290.08701"
       y1="351.41116"
       x1="200.59668"
       gradientTransform="translate(70.505061,-1761.3076)"
       gradientUnits="userSpaceOnUse"
       id="linearGradient5201"
       xlink:href="#linearGradient5562"
       inkscape:collect="always" /><linearGradient
       y2="937.71399"
       x2="-496.29703"
       y1="782.33563"
       x1="-584.19934"
       gradientTransform="translate(864.55062,-2197.497)"
       gradientUnits="userSpaceOnUse"
       id="linearGradient5205"
       xlink:href="#linearGradient5053"
       inkscape:collect="always" /></defs><sodipodi:namedview
     id="base"
     pagecolor="#ffffff"
     bordercolor="#666666"
     borderopacity="1.0"
     inkscape:pageopacity="0.0"
     inkscape:pageshadow="2"
     inkscape:zoom="1.5110899"
     inkscape:cx="104.89118"
     inkscape:cy="194.89244"
     inkscape:document-units="px"
     inkscape:current-layer="svg2"
     showgrid="false"
     inkscape:window-width="2560"
     inkscape:window-height="1380"
     inkscape:window-x="0"
     inkscape:window-y="0"
     inkscape:window-maximized="0"
     inkscape:snap-global="true"
     fit-margin-top="0"
     fit-margin-left="0"
     fit-margin-right="0"
     fit-margin-bottom="0"
     inkscape:showpageshadow="0"
     inkscape:pagecheckerboard="1"
     inkscape:deskcolor="#505050" /><metadata
     id="metadata7"><rdf:RDF><cc:Work
         rdf:about=""><dc:format>image/svg+xml</dc:format><dc:type
           rdf:resource="http://purl.org/dc/dcmitype/StillImage" /><dc:title /></cc:Work></rdf:RDF></metadata><g
     inkscape:label="print-logo"
     inkscape:groupmode="layer"
     id="layer1"
     style="display:inline"
     transform="translate(-156.33871,933.1905)"><path
       style="color:#000000;clip-rule:nonzero;display:inline;overflow:visible;visibility:visible;opacity:1;isolation:auto;mix-blend-mode:normal;color-interpolation:sRGB;color-interpolation-filters:linearRGB;solid-color:#000000;solid-opacity:1;fill:#5277c3;fill-opacity:1;fill-rule:evenodd;stroke:none;stroke-width:3;stroke-linecap:butt;stroke-linejoin:round;stroke-miterlimit:4;stroke-dasharray:none;stroke-dashoffset:0;stroke-opacity:1;color-rendering:auto;image-rendering:auto;shape-rendering:auto;text-rendering:auto;enable-background:accumulate"
       d="m 309.40365,-710.2521 122.19683,211.6751 -56.15706,0.5268 -32.6236,-56.8692 -32.85645,56.5653 -27.90237,-0.011 -14.29086,-24.6896 46.81047,-80.4902 -33.22946,-57.8256 z"
       id="path4861"
       inkscape:connector-curvature="0"
       sodipodi:nodetypes="cccccccccc" /><path
       style="color:#000000;clip-rule:nonzero;display:inline;overflow:visible;visibility:visible;opacity:1;isolation:auto;mix-blend-mode:normal;color-interpolation:sRGB;color-interpolation-filters:linearRGB;solid-color:#000000;solid-opacity:1;fill:#7ebae4;fill-opacity:1;fill-rule:evenodd;stroke:none;stroke-width:3;stroke-linecap:butt;stroke-linejoin:round;stroke-miterlimit:4;stroke-dasharray:none;stroke-dashoffset:0;stroke-opacity:1;color-rendering:auto;image-rendering:auto;shape-rendering:auto;text-rendering:auto;enable-background:accumulate"
       d="m 353.50926,-797.4433 -122.21756,211.6631 -28.53477,-48.37 32.93839,-56.6875 -65.41521,-0.1719 -13.9414,-24.1698 14.23637,-24.721 93.11177,0.2939 33.46371,-57.6903 z"
       id="use4863"
       inkscape:connector-curvature="0"
       sodipodi:nodetypes="cccccccccc" /><path
       style="color:#000000;clip-rule:nonzero;display:inline;overflow:visible;visibility:visible;opacity:1;isolation:auto;mix-blend-mode:normal;color-interpolation:sRGB;color-interpolation-filters:linearRGB;solid-color:#000000;solid-opacity:1;fill:#7ebae4;fill-opacity:1;fill-rule:evenodd;stroke:none;stroke-width:3;stroke-linecap:butt;stroke-linejoin:round;stroke-miterlimit:4;stroke-dasharray:none;stroke-dashoffset:0;stroke-opacity:1;color-rendering:auto;image-rendering:auto;shape-rendering:auto;text-rendering:auto;enable-background:accumulate"
       d="m 362.88537,-628.243 244.41439,0.012 -27.62229,48.8968 -65.56199,-0.1817 32.55876,56.7371 -13.96098,24.1585 -28.52722,0.032 -46.3013,-80.7841 -66.69317,-0.1353 z"
       id="use4865"
       inkscape:connector-curvature="0"
       sodipodi:nodetypes="cccccccccc" /><path
       style="color:#000000;clip-rule:nonzero;display:inline;overflow:visible;visibility:visible;opacity:1;isolation:auto;mix-blend-mode:normal;color-interpolation:sRGB;color-interpolation-filters:linearRGB;solid-color:#000000;solid-opacity:1;fill:#7ebae4;fill-opacity:1;fill-rule:evenodd;stroke:none;stroke-width:3;stroke-linecap:butt;stroke-linejoin:round;stroke-miterlimit:4;stroke-dasharray:none;stroke-dashoffset:0;stroke-opacity:1;color-rendering:auto;image-rendering:auto;shape-rendering:auto;text-rendering:auto;enable-background:accumulate"
       d="m 505.14318,-720.9886 -122.19683,-211.6751 56.15706,-0.5268 32.6236,56.8692 32.85645,-56.5653 27.90237,0.011 14.29086,24.6896 -46.81047,80.4902 33.22946,57.8256 z"
       id="use4867"
       inkscape:connector-curvature="0"
       sodipodi:nodetypes="cccccccccc" /><path
       sodipodi:nodetypes="cccccccccc"
       inkscape:connector-curvature="0"
       id="path4873"
       d="m 309.40365,-710.2521 122.19683,211.6751 -56.15706,0.5268 -32.6236,-56.8692 -32.85645,56.5653 -27.90237,-0.011 -14.29086,-24.6896 46.81047,-80.4902 -33.22946,-57.8256 z"
       style="color:#000000;clip-rule:nonzero;display:inline;overflow:visible;visibility:visible;opacity:1;isolation:auto;mix-blend-mode:normal;color-interpolation:sRGB;color-interpolation-filters:linearRGB;solid-color:#000000;solid-opacity:1;fill:#859fd5;fill-opacity:1;fill-rule:evenodd;stroke:none;stroke-width:3;stroke-linecap:butt;stroke-linejoin:round;stroke-miterlimit:4;stroke-dasharray:none;stroke-dashoffset:0;stroke-opacity:1;color-rendering:auto;image-rendering:auto;shape-rendering:auto;text-rendering:auto;enable-background:accumulate" /><path
       sodipodi:nodetypes="cccccccccc"
       inkscape:connector-curvature="0"
       id="use4875"
       d="m 451.3364,-803.53264 -244.4144,-0.012 27.62229,-48.89685 65.56199,0.18175 -32.55875,-56.73717 13.96097,-24.15851 28.52722,-0.0315 46.3013,80.78414 66.69317,0.13524 z"
       style="color:#000000;clip-rule:nonzero;display:inline;overflow:visible;visibility:visible;opacity:1;isolation:auto;mix-blend-mode:normal;color-interpolation:sRGB;color-interpolation-filters:linearRGB;solid-color:#000000;solid-opacity:1;fill:#859fd5;fill-opacity:1;fill-rule:evenodd;stroke:none;stroke-width:3;stroke-linecap:butt;stroke-linejoin:round;stroke-miterlimit:4;stroke-dasharray:none;stroke-dashoffset:0;stroke-opacity:1;color-rendering:auto;image-rendering:auto;shape-rendering:auto;text-rendering:auto;enable-background:accumulate" /><path
       sodipodi:nodetypes="cccccccccc"
       inkscape:connector-curvature="0"
       id="use4877"
       d="m 460.87178,-633.8425 122.21757,-211.66304 28.53477,48.37003 -32.93839,56.68751 65.4152,0.1718 13.9414,24.1698 -14.23636,24.7211 -93.11177,-0.294 -33.46371,57.6904 z"
       style="color:#000000;clip-rule:nonzero;display:inline;overflow:visible;visibility:visible;opacity:1;isolation:auto;mix-blend-mode:normal;color-interpolation:sRGB;color-interpolation-filters:linearRGB;solid-color:#000000;solid-opacity:1;fill:#859fd5;fill-opacity:1;fill-rule:evenodd;stroke:none;stroke-width:3;stroke-linecap:butt;stroke-linejoin:round;stroke-miterlimit:4;stroke-dasharray:none;stroke-dashoffset:0;stroke-opacity:1;color-rendering:auto;image-rendering:auto;shape-rendering:auto;text-rendering:auto;enable-background:accumulate" /></g><path
     style="fill:#ff0000;fill-opacity:1;stroke-width:0.69736;stroke:#ebebeb;stroke-opacity:1"
     d="m 404.23208,380.0562 c -0.2378,-0.61968 -0.24136,-3.94497 -0.008,-7.38953 0.45592,-6.72819 -0.56026,-17.61749 -1.83441,-19.6577 -0.4207,-0.67367 -2.00567,-1.53728 -3.52223,-1.91914 -5.385,-1.35598 -8.76225,-5.59479 -8.73867,-10.96796 0.0452,-10.24762 10.41151,-26.00921 28.35296,-43.10912 l 8.13596,-7.75434 2.29236,-10.4604 c 3.25892,-14.87129 3.30738,-15.15374 2.46217,-14.35089 -0.39714,0.37726 -3.39279,5.08445 -6.65692,10.4604 -6.52723,10.75011 -12.20846,18.56833 -14.6606,20.175 -0.87337,0.57229 -2.49271,1.04052 -3.59838,1.04052 -3.9695,0 -9.80354,-4.26726 -9.80354,-7.17073 0,-2.70318 -1.15219,-1.48225 -5.38265,5.70409 -7.73868,13.14568 -11.56118,17.17345 -16.26912,17.14288 -3.00701,-0.0195 -7.2282,-2.03714 -9.03082,-4.31649 -1.34939,-1.7062 -1.45908,-2.39378 -1.18634,-7.43709 0.32727,-6.05155 2.20721,-12.56095 7.69417,-26.64133 3.5276,-9.05241 3.79022,-8.41516 -3.12583,-7.58446 l -3.43778,0.41291 -4.12307,8.57081 c -4.87616,10.13609 -14.66457,28.00589 -18.1241,33.08735 -5.55468,8.15888 -9.15739,9.73263 -15.33396,6.69825 -5.96237,-2.92916 -7.55765,-7.45267 -6.36921,-18.06033 0.40775,-3.63921 1.76789,-10.58296 3.02257,-15.43058 1.25469,-4.84763 2.17136,-8.92367 2.0372,-9.05789 -0.35649,-0.35647 -15.63369,7.71149 -17.6566,9.32452 l -1.71989,1.37137 2.34118,3.88794 c 3.82941,6.35933 4.55829,11.13195 2.58476,16.92394 -1.2434,3.64916 -6.42346,9.57062 -10.42254,11.91426 -4.24761,2.48925 -4.51051,3.04739 -4.87175,10.34365 -0.26179,5.2868 -0.52218,6.60143 -1.30755,6.60143 -0.78795,0 -1.04492,-1.33718 -1.30755,-6.8044 l -0.32692,-6.8044 -3.56581,-1.2099 c -11.42764,-3.87746 -11.04493,-12.8709 1.08308,-25.45175 l 5.59449,-5.80341 -3.19029,-4.90349 c -1.75469,-2.69693 -3.33742,-4.89893 -3.5172,-4.89334 -0.17984,0.006 -1.945,3.01615 -3.92265,6.69012 -7.45338,13.84631 -13.33066,21.43169 -17.39626,22.4521 -2.52061,0.63262 -6.78197,-0.91475 -9.21248,-3.34521 -1.94926,-1.9493 -2.15727,-2.52638 -2.1565,-5.98199 0,-3.96801 2.20678,-14.05478 4.54148,-20.76656 0.73975,-2.12657 1.2279,-3.98356 1.08482,-4.12666 -0.14311,-0.14311 -1.81028,2.3323 -3.70481,5.50091 -10.09281,16.87999 -15.50293,23.83918 -19.26727,24.78398 -2.3174,0.58162 -8.56839,-2.60464 -10.21215,-5.2053 -1.78197,-2.81935 -1.27059,-8.10008 1.63099,-16.84332 2.4471,-7.37386 9.39287,-24.72443 10.27915,-25.67733 0.88516,-0.95177 6.2904,1.46751 8.10989,3.62987 0.9092,1.08049 1.65308,2.68118 1.65308,3.55709 0,0.87591 -1.74236,6.40038 -3.87195,12.27661 -2.12953,5.87622 -4.2064,11.97712 -4.61533,13.55754 -0.40888,1.58041 -0.89228,3.38648 -1.07414,4.01347 -0.62665,2.16006 1.58049,0.479 5.2242,-3.979 5.53857,-6.77631 17.98044,-24.82759 20.23605,-29.35939 1.72478,-3.4654 2.29563,-4.0861 3.758,-4.0861 2.17541,0 5.82902,2.42867 7.12367,4.73535 0.93662,1.66868 0.78739,2.3741 -2.76358,13.06079 -5.5023,16.55953 -8.07241,27.31432 -6.52742,27.31432 2.26824,0 7.81748,-6.95774 14.56374,-18.26025 4.49093,-7.52395 4.51095,-7.57878 3.79008,-10.39372 -1.42317,-5.55801 1.27819,-12.29411 7.34926,-18.32596 4.08437,-4.05799 8.81177,-6.61597 12.24082,-6.62347 4.89764,-0.0115 10.01347,3.52194 11.22673,7.7525 1.09953,3.83389 -2.19877,13.16217 -4.65397,13.16217 -1.78879,0 -1.9899,-1.03697 -0.90789,-4.68061 1.16843,-3.93442 1.31258,-7.08735 0.32407,-7.08735 -3.90271,0 -14.35056,11.67995 -14.35056,16.04282 0,1.47453 3.05918,6.64056 4.75893,8.03635 0.91278,0.74953 2.70505,0.0472 12.9294,-5.06659 l 11.86968,-5.93675 4.83815,-14.16139 c 2.66092,-7.78877 4.67203,-14.32745 4.46911,-14.53042 -0.65503,-0.65502 -14.18946,-0.001 -19.57894,0.9441 -2.87662,0.50518 -5.41898,0.92394 -5.64966,0.93057 -0.23069,0.007 -0.61186,-0.75461 -0.84702,-1.69162 -1.13196,-4.51002 3.93068,-6.49036 19.24532,-7.5282 5.57337,-0.3777 10.1984,-0.75093 10.27769,-0.82942 0.0792,-0.0784 1.56599,-4.39273 3.30374,-9.58721 2.56991,-7.6819 3.40542,-9.48057 4.47699,-9.63785 1.96793,-0.28883 7.49648,3.7676 8.91435,6.54068 1.21967,2.38553 1.2189,2.50692 -0.0473,7.51842 -0.7079,2.80155 -1.19555,5.19243 -1.08384,5.31305 0.11174,0.12065 7.77159,0.24527 17.02193,0.27697 l 16.8187,0.0575 -2.32087,2.12694 c -2.22988,2.04351 -5.86425,3.51871 -8.68792,3.52639 -0.73712,0.002 -1.62749,0.29094 -1.9787,0.6421 -0.3551,0.35511 -5.95936,0.71778 -12.62799,0.81721 l -11.98957,0.17876 -2.15491,6.21086 c -12.6439,36.44198 -15.35104,45.75291 -16.6268,57.18565 -0.88383,7.92036 -0.29694,8.34184 4.44482,3.19222 4.47287,-4.85754 9.96131,-13.5795 17.9428,-28.51377 4.54162,-8.49791 5.74506,-11.25357 5.01883,-11.49269 -1.94919,-0.64179 -5.11032,-4.51727 -5.81291,-7.12649 -1.17437,-4.36121 0.65174,-10.63133 3.97836,-13.6601 2.23322,-2.03334 4.07585,-2.38426 6.71949,-1.27971 2.45436,1.02554 3.63959,3.0368 3.63959,6.17652 0,1.69172 -1.35832,7.60603 -2.31148,10.06487 -0.57253,1.47677 1.30002,1.51147 7.23902,0.13417 5.27239,-1.22275 7.5508,-0.66384 11.01709,2.70254 3.33108,3.23513 3.15298,5.06483 -1.64319,16.88134 -6.64165,16.36339 -9.68284,26.53655 -7.93281,26.53655 3.02787,0 19.25411,-23.86138 22.34598,-32.86074 0.71194,-2.07226 2.96554,-7.58849 5.00796,-12.25826 4.09406,-9.36071 4.25082,-9.48989 8.73702,-7.20123 2.88454,1.47158 5.26596,4.18991 5.26596,6.01093 0,0.68196 -1.45832,5.01315 -3.2407,9.62489 -3.38763,8.76526 -6.12184,17.7332 -5.57371,18.28131 1.25602,1.25605 13.69795,-15.35219 21.89194,-29.22263 1.56068,-2.6419 3.22904,-4.95367 3.70743,-5.13726 2.68784,-1.03142 8.41554,3.11811 9.06227,6.56527 0.21478,1.14496 -0.20991,5.59197 -0.94382,9.88224 -0.73389,4.29026 -1.24184,7.89301 -1.1288,8.00608 0.11312,0.11311 2.99257,-1.39502 6.39882,-3.35127 12.72271,-7.30676 13.32132,-5.01295 0.88084,3.37499 l -8.49907,5.73045 -0.88321,3.59577 c -8.73443,35.55932 -18.19467,56.50177 -28.50151,63.09499 l -3.49664,2.23675 -0.42426,8.03162 c -0.23334,4.41739 -0.33711,10.97359 -0.23063,14.56935 0.18481,6.23701 0.12998,6.54685 -1.19401,6.73575 -0.84228,0.12024 -1.55777,-0.24491 -1.82018,-0.92868 z m -2.13559,-35.79123 c 2.84417,-1.18838 6.94445,-5.95225 9.78374,-11.3672 4.40773,-8.40627 7.26872,-16.43032 12.00485,-33.6693 0.64792,-2.35837 -1.1439,-0.90938 -9.43348,7.6288 -12.43761,12.81055 -18.81358,23.07391 -19.60012,31.55037 -0.27728,2.98738 -0.1166,3.58256 1.3676,5.06677 1.91634,1.9163 2.87465,2.04521 5.87741,0.79056 z m 15.75767,-16.10697 0.4277,-1.63444 -0.98482,1.63444 c -1.0975,1.82155 -1.38384,3.25414 -0.45077,2.25553 0.31918,-0.3416 0.77274,-1.35659 1.00789,-2.25553 z m 4.32928,-10.4604 c 0.81709,-2.33723 1.73225,-4.52901 2.03357,-4.87061 0.8093,-0.9172 0.66835,-1.44921 -0.38382,-1.44921 -0.51249,0 -0.92024,0.46581 -0.90608,1.03515 0.0139,0.56933 -0.74708,3.2307 -1.69159,5.91414 -0.94456,2.68345 -1.45196,4.59573 -1.12756,4.24954 0.32442,-0.34621 1.25839,-2.54176 2.07548,-4.87901 z m 3.682,3.1463 c -0.20872,-0.52154 -0.36361,-0.36663 -0.39498,0.39499 -0.0286,0.6892 0.12608,1.07532 0.34337,0.85809 0.21723,-0.21725 0.24046,-0.78113 0.0517,-1.25308 z m 1.46878,-3.34832 c -0.0446,-1.38101 -0.0663,-1.3855 -0.60783,-0.12482 -0.7733,1.79951 -0.7733,2.43924 0,1.96132 0.35957,-0.22222 0.63308,-1.04863 0.60783,-1.83646 z m 1.35349,-3.14402 c 0,-0.35956 -0.2942,-0.47194 -0.65377,-0.24972 -0.35963,0.22224 -0.65377,0.69826 -0.65377,1.05784 0,0.35958 0.29414,0.47195 0.65377,0.24971 0.35957,-0.22222 0.65377,-0.69824 0.65377,-1.05783 z m 1.68888,-2.53793 c 0.50942,0 0.92622,-0.29419 0.92622,-0.65378 0,-0.35956 -0.2942,-0.65377 -0.65377,-0.65377 -0.35963,0 -0.67768,-0.51484 -0.70692,-1.14409 -0.0341,-0.73411 -0.36282,-0.44125 -0.91743,0.8172 -0.4754,1.07875 -0.69179,2.24105 -0.48097,2.5829 0.21974,0.35632 0.49505,0.28657 0.64505,-0.16343 0.14387,-0.43175 0.67847,-0.78503 1.18782,-0.78503 z m -4.35997,-3.92265 c -0.0237,-0.64662 -0.22734,-0.53526 -0.59778,0.32689 -0.77232,1.79729 -0.77232,2.82951 0,1.63444 0.34855,-0.53937 0.61759,-1.42196 0.59778,-1.96133 z m -133.44509,0.38526 c 2.15595,-1.12632 4.76589,-3.8641 6.59968,-6.923 1.86523,-3.11138 1.86591,-10.46039 0,-10.46039 -0.99444,0 -5.70261,4.57375 -8.17439,7.94096 -2.37374,3.23367 -4.23506,8.03235 -3.70333,9.54752 0.38272,1.09067 3.09139,1.03674 5.277,-0.10508 z m 140.06025,-7.65188 c 1.06718,-3.73354 1.85106,-7.05586 1.74207,-7.38295 -0.17943,-0.53829 -4.37859,13.26243 -4.37859,14.39046 0,1.44875 0.9134,-0.97907 2.63652,-7.00751 z m -103.34886,-13.8996 c 0.35887,-0.94373 1.02742,-1.7204 1.4858,-1.7259 0.61757,-0.007 0.63445,-0.13653 0.0655,-0.4986 -0.56668,-0.36041 -0.26506,-2.37285 1.14974,-7.67184 2.82996,-10.59893 2.81699,-10.53715 2.05415,-9.79835 -0.37128,0.35956 -2.08958,5.1744 -3.8184,10.6996 -1.72876,5.52522 -3.24076,9.75331 -3.35995,9.39573 -0.27406,-0.82207 3.46045,-13.61557 8.06142,-27.61669 3.45597,-10.5168 4.15995,-13.21181 2.8773,-11.01496 -1.22833,2.1037 -9.21596,26.9287 -11.15309,34.66285 -1.83273,7.31719 -3.34727,18.83194 -1.96348,14.92778 0.47635,-1.34422 0.5984,-0.99593 0.68724,1.96132 0.10266,3.42055 0.18473,3.22543 1.68483,-4.00465 0.86722,-4.18021 1.87039,-8.37255 2.22918,-9.31629 z m -4.21854,8.74452 c -0.22224,-0.35959 -0.0926,-0.65378 0.28829,-0.65378 0.38083,0 0.6924,0.29419 0.6924,0.65378 0,0.35956 -0.12984,0.65376 -0.28835,0.65376 -0.15858,0 -0.47009,-0.2942 -0.69234,-0.65376 z m 0.37852,-2.34271 c 0.0313,-0.76161 0.18627,-0.91654 0.39499,-0.39498 0.18886,0.47194 0.16563,1.03581 -0.0516,1.25306 -0.21728,0.21725 -0.37176,-0.16889 -0.34337,-0.85808 z m 0.44213,-3.21439 c 0.17183,-0.89893 0.42526,-1.63443 0.56312,-1.63443 0.13792,0 0.2507,0.7355 0.2507,1.63443 0,0.89893 -0.25341,1.63444 -0.56312,1.63444 -0.30976,0 -0.42253,-0.73551 -0.2507,-1.63444 z m 102.47194,10.11308 0.34749,-2.26778 -0.93928,2.28822 c -1.13899,2.7745 -1.27547,3.767 -0.39729,2.88886 0.35281,-0.35284 0.79793,-1.66202 0.98908,-2.9093 z m -59.36995,-0.75592 c -0.20871,-0.52155 -0.36359,-0.36664 -0.39498,0.39499 -0.0286,0.68918 0.12608,1.07532 0.34339,0.85807 0.21721,-0.21724 0.24044,-0.78112 0.0516,-1.25306 z m -32.5086,-15.8949 c 1.15265,-4.31492 3.27542,-11.6184 4.71714,-16.22994 1.44172,-4.61156 2.48065,-8.52527 2.30882,-8.69712 -0.93049,-0.93053 -9.80864,28.14825 -10.50481,34.4068 l -0.40002,3.59576 0.89159,-2.6151 c 0.4903,-1.43831 1.8346,-6.1455 2.98728,-10.4604 z m -6.27694,8.2293 c 0.58698,-0.72583 0.53698,-0.855 -0.23376,-0.60335 -0.53941,0.1761 -1.03349,1.18008 -1.09792,2.23108 -0.0737,1.20056 0.0139,1.42486 0.23376,0.60337 0.1931,-0.71916 0.68718,-1.72315 1.09792,-2.2311 z m 40.74688,0.47407 c -0.20873,-0.52154 -0.3636,-0.36663 -0.395,0.39499 -0.0286,0.68918 0.12608,1.07532 0.34339,0.85808 0.21722,-0.21725 0.24044,-0.78113 0.0516,-1.25307 z m -36.40421,-12.58744 c 0,-0.15857 -0.29422,-0.47014 -0.65377,-0.69236 -0.35963,-0.22223 -0.65378,-0.0926 -0.65378,0.2883 0,0.3808 0.29415,0.69236 0.65378,0.69236 0.35955,0 0.65377,-0.12969 0.65377,-0.2883 z m 1.2975,-6.45147 c 0.007,-0.29091 -0.28418,-0.3471 -0.64373,-0.12483 -0.35962,0.22222 -0.64931,0.90153 -0.6438,1.50957 0.008,0.95273 0.0976,0.96999 0.6438,0.12482 0.34854,-0.53936 0.63823,-1.21868 0.64373,-1.50959 z m 0.38809,-11.40576 c -0.39366,-0.3937 -1.71195,2.81133 -1.63231,3.9685 0.0293,0.42604 0.48543,-0.21573 1.01362,-1.42616 0.5281,-1.21047 0.80655,-2.35452 0.61869,-2.54234 z m 1.58328,-3.75593 c 0,-0.53936 -0.11563,-0.98066 -0.25698,-0.98066 -0.14127,0 -0.42629,0.4413 -0.63327,0.98066 -0.20697,0.53938 -0.0914,0.98067 0.25698,0.98067 0.34827,0 0.63327,-0.44129 0.63327,-0.98067 z m 27.73692,-0.76316 c 0.819,-2.13423 1.26691,-8.94069 0.55965,-8.50359 -0.78962,0.48803 -2.14557,5.49444 -2.14557,7.92182 0,1.88555 0.95161,2.23464 1.58592,0.58177 z m -154.24238,71.23049 c -5.97003,-1.44073 -8.40479,-4.81335 -8.3377,-11.54927 0.078,-7.82127 6.09953,-33.74772 7.83818,-33.74772 0.45455,0 0.82645,0.49033 0.82645,1.08962 0,0.5993 0.1219,0.96704 0.27085,0.81722 0.61207,-0.61563 3.45256,-11.71346 2.99803,-11.71346 -0.27128,0 -1.02736,2.05938 -1.68023,4.57642 -0.70727,2.72682 -1.53238,4.57643 -2.04159,4.57643 -0.47009,0 -0.85462,-0.17947 -0.85462,-0.39881 0,-0.71742 4.46312,-16.87908 5.1825,-18.76667 1.67038,-4.38281 0.37087,-2.8317 -4.28067,5.10931 -13.53422,23.10531 -16.21599,27.39813 -18.80235,30.09742 -2.36392,2.46706 -3.18588,2.91821 -5.31695,2.91821 -5.18396,0 -10.76975,-4.32065 -10.77637,-8.33563 0,-0.80905 -0.22316,-1.46171 -0.49284,-1.45037 -0.26967,0.0115 -2.19486,2.88199 -4.27814,6.37919 -5.6192,9.43283 -9.94408,15.04128 -12.56121,16.28931 -2.13084,1.01614 -2.51083,1.0139 -5.83634,-0.0344 -10.20265,-3.2161 -9.89832,-10.522 1.70323,-40.88929 2.11434,-5.5343 3.7267,-10.17992 3.58305,-10.32359 -0.47847,-0.47843 -8.3502,8.52398 -13.82399,15.80951 -6.21905,8.27747 -13.78177,19.76721 -15.12127,22.973 -1.074,2.57051 -2.42192,2.78494 -5.99331,0.95341 -4.14433,-2.12534 -5.60105,-4.18316 -5.51877,-7.79605 0.0858,-3.76531 3.35722,-14.20279 8.94923,-28.55208 2.24206,-5.75321 4.27439,-11.26944 4.5163,-12.25827 0.3417,-1.39692 0.82519,-1.79789 2.1678,-1.79789 2.44739,0 7.21232,2.97099 8.37699,5.22317 1.65922,3.20863 1.87875,2.41825 -6.99362,25.17737 -1.53043,3.92582 -1.91,4.3067 7.81767,-7.8453 9.75614,-12.1875 16.9273,-19.28637 19.48292,-19.28637 2.66119,0 7.16601,2.88883 8.12857,5.21261 1.24583,3.0077 0.4963,5.99703 -5.3005,21.14116 -5.12016,13.37614 -7.76769,21.92967 -7.76769,25.09515 0,2.50862 1.99118,0.91686 6.65708,-5.32178 6.94101,-9.28051 12.15567,-18.49935 14.65759,-25.91267 3.60486,-10.68176 9.46038,-19.53185 14.6871,-22.19834 4.88047,-2.48979 11.27554,-1.39935 15.97092,2.72326 1.28398,1.12736 2.4681,1.9161 2.63142,1.75278 1.71656,-1.7165 16.95938,-36.25676 20.3581,-46.13131 1.73084,-5.02873 1.98001,-5.39334 3.68667,-5.39364 4.11079,-6.9e-4 9.26777,4.52427 9.13533,8.01577 -0.0439,1.16458 -2.27247,7.8543 -4.95173,14.86602 -13.56805,35.5085 -23.21309,67.84365 -25.95937,87.02927 -0.46701,3.26293 -0.39526,5.19067 0.29213,7.84048 1.11522,4.29935 0.58843,4.95801 -3.22885,4.0368 z m -4.24949,-20.33834 c 0,-0.61333 0.88871,-5.08249 1.97492,-9.93147 1.0862,-4.84898 2.1206,-9.69892 2.29863,-10.77765 0.51326,-3.10971 -2.27221,4.77569 -3.34865,9.47974 -0.5348,2.33724 -1.13941,4.69083 -1.3436,5.2302 -0.74994,1.9817 -0.95692,7.96451 -0.2606,7.53414 0.37357,-0.23088 0.6793,-0.9216 0.6793,-1.53496 z m 6.91417,-5.72891 c 0.18076,-1.04759 0.46117,-2.49311 0.62317,-3.21225 0.16192,-0.71916 -0.12789,-0.39248 -0.64416,0.72596 -1.40065,3.03472 -2.01969,5.9869 -1.06975,5.10139 0.41919,-0.39071 0.90999,-1.56751 1.09074,-2.6151 z m -4.35508,-0.27027 c -0.0237,-0.64662 -0.22733,-0.53528 -0.59777,0.32688 -0.77234,1.79729 -0.77234,2.82952 0,1.63443 0.34854,-0.53935 0.61758,-1.42195 0.59777,-1.96131 z m 1.1427,-6.04741 c -0.18132,-0.44949 -0.32972,-0.0818 -0.32972,0.81721 0,0.89893 0.1484,1.26669 0.32972,0.81723 0.18138,-0.4495 0.18138,-1.18497 0,-1.63444 z m -88.21852,-1.79789 c 0.0543,-0.71915 -0.17742,-1.30754 -0.51467,-1.30754 -0.70342,0 -0.82775,1.52876 -0.17726,2.17923 0.59186,0.59187 0.58063,0.60601 0.69193,-0.87169 z m -0.48921,-2.9853 c 0.60824,1.73392 4.03932,-10.58976 3.50723,-12.59714 -0.30209,-1.13955 -0.54471,-1.30519 -0.95767,-0.65376 -0.3042,0.47987 -0.55301,1.31379 -0.55301,1.85315 0,0.8717 0.0704,0.8717 0.63375,0 1.01872,-1.57638 0.73781,-0.0139 -0.9399,5.23021 -1.58782,4.96234 -2.2538,5.7057 -0.97015,1.08279 1.21911,-4.39051 0.0975,-3.35606 -1.31307,1.2111 -1.38684,4.49004 -1.81356,8.08506 -0.54457,4.58741 0.60754,-1.67435 0.76563,-1.77355 1.13739,-0.71376 z m 70.38069,-1.78551 c 6.09576,-7.67982 15.27901,-22.69809 15.27901,-24.9873 0,-1.76532 -1.93315,-3.5844 -3.80918,-3.5844 -4.01345,0 -11.00677,11.07504 -13.80424,21.86113 -1.35071,5.20785 -1.772,10.2007 -0.85573,10.14289 0.26968,-0.017 1.70525,-1.56157 3.19014,-3.43232 z m 23.47886,-10.5929 c 0.25997,-1.43831 0.27176,-2.42872 0.0265,-2.20093 -0.5745,0.53299 -4.27971,13.65545 -4.22105,14.94954 0.0593,1.31245 3.596,-9.43558 4.19483,-12.74861 z m -0.11814,11.76795 c 0.20698,-0.53937 0.0914,-0.98066 -0.25698,-0.98066 -0.34826,0 -0.63319,0.44129 -0.63319,0.98066 0,0.53935 0.11563,0.98066 0.2569,0.98066 0.14128,0 0.42629,-0.44131 0.63327,-0.98066 z m -61.69124,-1.63444 c 0,-0.35958 -0.29422,-0.65377 -0.65377,-0.65377 -0.35964,0 -0.65378,0.29419 -0.65378,0.65377 0,0.35958 0.29414,0.65378 0.65378,0.65378 0.35955,0 0.65377,-0.2942 0.65377,-0.65378 z m 63.67872,-6.21086 c 0.27043,-1.85164 0.22343,-2.13794 -0.16109,-0.98066 -0.99717,3.00095 -1.46989,5.62686 -0.824,4.57642 0.33172,-0.53937 0.77497,-2.15746 0.98509,-3.59576 z m 0.41214,-11.84134 c 0.70761,-2.47438 1.2641,-5.0882 1.23663,-5.80851 -0.0488,-1.28274 -2.01098,4.76165 -2.91455,8.97856 -0.78196,3.64967 0.32664,1.55525 1.67792,-3.17005 z m -1.13886,-3.52328 c 0.1882,-0.71963 0.0756,-1.14359 -0.25063,-0.94206 -0.32603,0.2015 -0.59276,0.7903 -0.59276,1.30844 0,1.35316 0.44423,1.16017 0.84339,-0.36638 z M 70.435292,314.44607 c -2.272804,-2.43303 -2.741681,-4.14522 -1.586722,-5.79415 0.932836,-1.33181 9.104171,-4.54847 15.197326,-5.98244 3.277094,-0.77124 3.472288,-0.92843 3.154427,-2.54018 -1.40245,-7.11146 5.234044,-30.60618 18.213567,-64.48042 5.79884,-15.13378 5.87575,-15.36438 5.12518,-15.3617 -0.61674,0.001 -7.80031,3.61106 -11.149874,5.60145 -2.081066,1.23665 -2.086569,1.23619 -3.723137,-0.30128 -2.330147,-2.18907 -3.142294,-4.83469 -1.989355,-6.48069 1.244719,-1.77718 9.204516,-4.99805 17.389156,-7.03639 12.00198,-2.98908 28.59775,-2.89348 29.77391,0.17152 0.68893,1.7953 -1.68432,2.81107 -6.63914,2.84165 -4.4548,0.0274 -9.87776,0.76693 -10.54931,1.43842 -0.17895,0.17901 0.0307,1.10741 0.46633,2.06314 1.01417,2.22595 0.39847,4.2333 -7.74049,25.23606 -10.50692,27.11306 -14.93298,40.41872 -16.528339,49.68688 -0.402297,2.33724 -0.883127,4.76438 -1.068486,5.39365 -0.299247,1.01587 0.199164,1.14451 4.446915,1.14774 5.38808,0.005 9.14714,0.84607 10.37323,2.32347 1.33335,1.60658 -0.0272,2.26162 -5.97875,2.87788 -10.030611,1.03868 -23.96239,5.15807 -31.145318,9.20917 -1.882319,1.06162 -3.603034,1.9302 -3.823777,1.9302 -0.220758,0 -1.21857,-0.87478 -2.217343,-1.94398 z M 93.819529,286.8236 c 0.383756,-1.53746 1.045485,-4.26638 1.47045,-6.06426 0.425035,-1.79788 1.769544,-6.54619 2.987766,-10.55179 2.585395,-8.50077 2.807925,-10.17128 0.553983,-4.15814 -2.682471,7.15609 -7.193542,24.48654 -6.216753,23.88282 0.27881,-0.17229 0.820869,-1.57117 1.204554,-3.10863 z m -0.538367,-5.73737 c 0,-0.87171 -0.07035,-0.87171 -0.633685,0 -0.348607,0.53936 -0.63377,1.42195 -0.63377,1.96132 0,0.8717 0.07035,0.8717 0.63377,0 0.348537,-0.53937 0.633685,-1.42196 0.633685,-1.96132 z m 7.845298,-0.65378 c 0,-0.8717 -0.0703,-0.8717 -0.63368,0 -0.34863,0.53936 -0.633775,1.42196 -0.633775,1.96133 0,0.87169 0.07035,0.87169 0.633775,0 0.34853,-0.53937 0.63368,-1.42197 0.63368,-1.96133 z m -6.935031,-1.63444 c 0.20698,-0.53936 0.09139,-0.98066 -0.25698,-0.98066 -0.348258,0 -0.633198,0.4413 -0.633198,0.98066 0,0.53936 0.115632,0.98066 0.25691,0.98066 0.141279,0 0.426288,-0.4413 0.633268,-0.98066 z m 1.645624,-6.19594 c 0.422667,-1.2503 0.487183,-1.98582 0.143313,-1.63444 -0.34394,0.35137 -0.834606,1.52146 -1.090386,2.60018 -0.600014,2.52995 -0.04249,1.96169 0.947073,-0.96574 z m 9.174327,-6.80208 c 0.77623,-2.11486 1.29025,-3.96627 1.14221,-4.11426 -0.26361,-0.26358 -3.69949,7.86376 -3.69949,8.75084 0,1.16293 1.28153,-1.16067 2.55728,-4.63658 z m -6.3648,-2.34789 c 0.672179,-1.9679 0.960405,-3.29178 0.640387,-2.94199 -0.68097,0.74447 -2.740623,6.75702 -2.665239,7.78051 0.05865,0.79079 0.29582,0.22304 2.024852,-4.83852 z m 4.46129,-7.44324 c 0,-0.83065 -0.30203,-0.45976 -1.25511,1.54147 -0.73398,1.54112 -0.72031,1.56198 0.23836,0.36536 0.5592,-0.69797 1.01675,-1.55605 1.01675,-1.90683 z m 218.9949,-41.77111 c -7.25521,-3.6652 -7.77425,-11.20165 -1.6107,-23.38714 4.42873,-8.7557 11.60072,-17.71183 23.35277,-29.16188 l 8.13798,-7.92891 2.06697,-9.72302 c 2.28637,-10.75518 3.04955,-15.28011 2.57723,-15.28011 -0.1719,0 -2.93044,4.33904 -6.13007,9.64232 -6.93169,11.48903 -12.39912,19.02018 -15.31638,21.09741 -1.97326,1.40509 -2.35074,1.45764 -5.13055,0.71415 -8.11295,-2.16987 -9.9719,-7.1221 -6.86405,-18.2852 0.53634,-1.92644 0.83912,-3.6386 0.67289,-3.80483 -0.52183,-0.52189 -11.54027,5.46928 -15.24129,8.28736 l -1.41,1.07361 2.16091,3.22404 c 6.54382,9.76328 5.20022,18.77672 -4.01212,26.91497 -2.97389,2.62715 -4.14218,4.14681 -4.45021,5.78848 -0.46967,2.50373 -1.36458,2.89782 -2.0042,0.88256 -0.23452,-0.73896 -0.76166,-1.23179 -1.17136,-1.09521 -1.18613,0.39537 -1.67247,4.08524 -1.78629,13.55292 -0.12356,10.26762 -0.40356,12.42172 -1.61522,12.42172 -1.32303,0 -1.47233,-1.29151 -1.54304,-13.34832 -0.0355,-6.08305 -0.21262,-11.52585 -0.39332,-12.09511 -0.18067,-0.56925 -1.82128,-1.71983 -3.64578,-2.55686 -9.16981,-4.20669 -7.75138,-13.05103 4.05974,-25.31447 l 4.43855,-4.60852 -3.01956,-4.54434 c -3.5488,-5.34075 -3.59287,-5.39207 -3.90145,-4.54429 -0.13095,0.35957 -2.37061,4.39692 -4.97727,8.9719 -5.94695,10.4378 -9.93702,15.93958 -13.05932,18.00723 -3.50647,2.32205 -7.65973,1.65155 -11.10393,-1.79258 -2.30476,-2.30481 -2.47742,-2.74486 -2.47659,-6.31362 0,-3.97794 2.20442,-14.0595 4.54149,-20.77808 0.73975,-2.12656 1.23816,-3.9733 1.10762,-4.10389 -0.13068,-0.13055 -1.94871,2.63903 -4.0403,6.15468 -8.98694,15.10572 -14.3843,22.2385 -17.94356,23.7128 -2.67556,1.10824 -7.03225,-0.51955 -9.78668,-3.65662 -1.76432,-2.00949 -1.99172,-2.73398 -1.99172,-6.345 0,-4.2602 1.61516,-11.08878 3.86337,-16.33373 0.72616,-1.69411 1.1558,-3.08017 0.95468,-3.08017 -0.20105,0 -2.33183,0.59723 -4.73507,1.32719 l -4.36952,1.32719 -1.10782,5.35756 c -2.11761,10.24113 -9.2894,22.17743 -14.68828,24.44641 -6.48364,2.72488 -15.91982,-1.54474 -18.8292,-8.51967 -2.73358,-6.55341 -0.13681,-19.09773 5.65314,-27.30849 0.71988,-1.02085 1.22373,-2.8512 1.22373,-4.44544 0,-11.00087 16.72813,-15.0508 24.41819,-5.9117 1.81369,2.15544 3.69413,7.53935 3.69413,10.57672 0,2.24318 0.62721,2.29535 6.51501,0.54188 l 4.36784,-1.30079 2.81957,-6.88773 c 1.55078,-3.78824 3.05443,-7.03285 3.34147,-7.21022 1.87303,-1.15764 9.76088,4.72912 9.76088,7.28466 0,0.55002 -1.20846,4.14372 -2.68547,7.98599 -3.72898,9.70096 -7.12115,20.07493 -7.12115,21.77812 0,1.41087 0.0168,1.41307 1.38975,0.18255 3.71359,-3.32782 18.82272,-24.52501 23.40403,-32.83446 2.17722,-3.94899 2.5916,-4.35489 4.31428,-4.22589 2.16782,0.1623 4.52851,1.74188 6.45038,4.31593 l 1.31605,1.76277 -1.38271,4.08082 c -0.76048,2.24446 -2.54753,7.46412 -3.97119,11.59924 -3.4292,9.96024 -5.4966,18.38095 -5.24619,21.36821 l 0.20344,2.42711 2.50164,-2.20266 c 2.43685,-2.14563 9.86526,-12.90881 14.09741,-20.42599 1.68718,-2.99686 1.96732,-3.99149 1.41479,-5.02379 -0.37881,-0.70792 -0.68857,-2.85101 -0.6883,-4.76242 0,-8.66119 9.30837,-19.84716 18.08981,-21.74174 2.81266,-0.60683 8.11803,1.72392 10.75161,4.72343 1.85686,2.11481 2.00512,2.62029 1.76062,6.00047 -0.34108,4.7159 -2.89635,10.07604 -4.94192,10.36655 -1.79437,0.25485 -1.84757,-0.50841 -0.39874,-5.7196 1.1247,-4.04534 0.91298,-5.93036 -0.66612,-5.93036 -1.77045,0 -7.40749,5.10744 -10.11966,9.16898 -3.92056,5.8711 -3.69818,8.65757 1.10728,13.87353 1.61821,1.75644 1.68949,1.77045 3.33205,0.6545 0.92316,-0.62719 5.76847,-3.20007 10.76736,-5.71749 l 9.08883,-4.57716 3.35982,-7.84527 c 3.02688,-7.06787 3.53672,-7.86595 5.14463,-8.05351 1.99926,-0.23324 5.8069,1.85057 7.31461,4.00305 1.53446,2.19079 1.19778,4.38477 -1.98622,12.94205 -3.38117,9.08702 -5.69465,16.99285 -5.13307,17.54077 1.11697,1.08973 18.52955,-22.94804 23.0543,-31.82601 1.12031,-2.19812 1.77276,-2.77854 3.12354,-2.77854 2.01677,0 5.70797,2.14508 7.09243,4.12173 1.2487,1.78273 1.25734,6.88882 0.0243,14.48385 -0.52287,3.22136 -0.86333,5.94436 -0.75655,6.05112 0.10668,0.10668 3.25228,-1.57272 6.99013,-3.73221 6.42141,-3.70993 9.10514,-4.69072 9.10514,-3.32751 0,0.73699 -2.99384,3.07145 -11.25721,8.77799 -5.45105,3.76439 -6.44457,4.73369 -6.99222,6.82181 -0.35105,1.33866 -1.40699,5.52302 -2.34647,9.29857 -5.23424,21.03539 -13.05659,40.0591 -20.19275,49.10834 -5.3574,6.79361 -13.8338,9.10687 -20.68585,5.64531 z m 9.20982,-8.10693 c 5.19616,-4.86043 11.29813,-18.23654 16.31564,-35.76551 1.11737,-3.90367 1.85734,-7.27181 1.64443,-7.48475 -0.69778,-0.69777 -12.75874,11.82185 -17.82716,18.505 -6.27924,8.27987 -10.13264,16.11269 -10.51291,21.36967 -0.34847,4.81785 0.79423,6.41576 4.58801,6.41576 2.12283,0 3.07751,-0.5011 5.79199,-3.04017 z m 11.76508,-13.06798 c 0.36075,-0.94881 0.53452,-1.84641 0.38627,-1.9947 -0.14826,-0.14828 -0.5825,0.62803 -0.96493,1.72511 -0.85016,2.43878 -0.33697,2.67787 0.57866,0.26959 z m 4.87127,-12.00417 c 3.10771,-8.01949 3.29893,-8.68111 1.65185,-5.7148 -1.66482,2.99824 -5.58037,13.49114 -4.69416,12.57944 0.34959,-0.35957 1.71857,-3.44866 3.04231,-6.86464 z m 3.78275,3.92265 c 0.18809,-0.71915 0.23271,-1.30755 0.0992,-1.30755 -0.13347,0 -0.55754,0.5884 -0.94241,1.30755 -0.38661,0.72237 -0.43104,1.30755 -0.0993,1.30755 0.33036,0 0.75441,-0.58839 0.94248,-1.30755 z m 2.42571,-2.65367 c 0,-0.38081 -0.29422,-0.51054 -0.65378,-0.28832 -0.35962,0.22224 -0.65378,0.0435 -0.65378,-0.39726 0,-0.44073 -0.17656,-0.62477 -0.39241,-0.40897 -0.50224,0.50228 0.27756,1.78689 1.08475,1.78689 0.33836,0 0.61522,-0.31154 0.61522,-0.69234 z m 1.72694,-6.04134 c 0.48843,-0.28754 0.88815,-0.83841 0.88815,-1.22415 0,-0.44457 -0.36459,-0.39882 -0.9957,0.12497 -0.84164,0.6985 -0.92552,0.64374 -0.54261,-0.35409 0.28578,-0.7448 0.20182,-1.0252 -0.22747,-0.75984 -0.37428,0.23128 -0.84499,1.23569 -1.04604,2.232 -0.20104,0.99633 -0.55196,2.3999 -0.77979,3.11903 -0.2279,0.71916 0.0874,0.42496 0.70051,-0.65377 0.6131,-1.07873 1.51444,-2.19659 2.00295,-2.48415 z m -61.20253,-4.39325 c 4.55229,-3.24151 7.0213,-10.65746 5.15104,-15.47182 l -0.71494,-1.84045 -4.19538,4.57643 c -6.01493,6.56113 -9.31317,13.96098 -6.63299,14.88172 1.23306,0.4236 4.16685,-0.56129 6.39227,-2.14588 z m 62.95262,-5.5398 c 2.44313,-8.64916 2.11466,-9.22257 -0.56438,-0.98518 -2.58078,7.93546 -2.40248,7.19152 -1.7238,7.19152 0.29429,0 1.32401,-2.79286 2.28818,-6.20634 z m -4.338,-1.76155 c -0.20873,-0.52153 -0.36359,-0.36662 -0.39498,0.39501 -0.0286,0.68918 0.12608,1.07532 0.34337,0.85807 0.21724,-0.21724 0.24045,-0.78112 0.0516,-1.25308 z m -142.4114,-3.70186 c 3.56616,-3.66125 6.64786,-9.54284 8.48639,-16.1967 l 1.28689,-4.65742 -3.36783,-0.40978 c -1.85232,-0.22538 -4.4492,-0.59161 -5.77084,-0.81386 -2.39027,-0.40194 -2.41337,-0.38362 -4.33947,3.43278 -1.06509,2.11026 -2.41085,5.4348 -2.99064,7.38783 -1.24506,4.19412 -1.40929,12.50362 -0.26958,13.6433 1.59681,1.59684 3.83108,0.83142 6.96508,-2.38615 z m 56.97409,-17.75011 c 0,-0.35959 -0.12971,-0.65377 -0.28836,-0.65377 -0.15858,0 -0.47009,0.29418 -0.69234,0.65377 -0.22224,0.35957 -0.0926,0.65378 0.28829,0.65378 0.38083,0 0.69241,-0.29421 0.69241,-0.65378 z m -47.07179,-10.77406 c 0,-8.21568 -4.31157,-12.50512 -10.7756,-10.7203 -2.70304,0.74633 -7.09139,4.53349 -5.76535,4.9755 0.42783,0.14261 1.3975,-0.0724 2.15484,-0.47766 1.66607,-0.89167 4.66966,0.62152 6.73559,3.39327 1.26326,1.69487 1.26934,1.8258 0.16284,3.51456 -1.48294,2.26321 -0.62568,2.8735 4.05536,2.88716 l 3.43232,0.009 z m -44.99756,72.3283 c -6.14603,-2.18859 -10.85035,-8.10378 -12.4533,-15.65875 -1.03127,-4.8603 -0.91445,-15.27762 0.26004,-23.18113 2.03852,-13.71853 7.48922,-32.15726 16.57114,-56.05688 2.11789,-5.57344 3.70759,-10.280612 3.53255,-10.460397 -0.46778,-0.480565 -6.77938,6.610707 -12.21976,13.729277 -9.64901,12.62536 -15.26284,21.62063 -31.11625,49.85901 -4.36158,7.76897 -5.45547,8.28045 -10.47484,4.89788 -4.05509,-2.73268 -5.20775,-5.21799 -5.20105,-11.21412 0.009,-8.07383 1.90322,-15.51539 12.66405,-49.75364 1.58224,-5.03407 3.06761,-10.182545 3.30102,-11.441056 l 0.42426,-2.288213 -3.65569,3.902965 c -10.3295,11.028344 -24.8583,37.094654 -39.548319,70.954254 -3.757924,8.66175 -6.490186,13.65997 -7.871308,14.39913 -1.068556,0.57188 -1.944301,0.43156 -4.238893,-0.67924 -3.590426,-1.73809 -5.926729,-4.44925 -6.919052,-8.02908 -2.075019,-7.48575 3.319487,-27.3985 17.393186,-64.20366 5.279366,-13.806463 9.485416,-26.411662 9.485416,-28.427124 0,-5.760235 -17.247585,8.916431 -25.539693,21.732734 -5.183863,8.01219 -7.904395,15.04943 -8.304715,21.48193 -0.379451,6.09732 0.492991,9.01175 3.483767,11.63769 2.650777,2.3274 2.847224,3.32154 0.656407,3.32154 -6.426715,0 -10.789528,-5.70821 -10.815482,-14.15074 -0.03358,-10.9031 7.246455,-25.092911 18.93204,-36.901553 6.046456,-6.110136 14.279341,-11.929943 18.474446,-13.05956 6.06348,-1.632737 13.84225,2.822344 15.5447,8.902751 1.55038,5.537485 0.18251,10.209047 -13.29403,45.402452 -6.574849,17.16981 -13.134707,36.78808 -12.718589,38.03653 0.107545,0.32275 3.667551,-6.70598 7.910989,-15.61942 14.43827,-30.32784 27.03043,-51.31157 37.32394,-62.19704 4.69234,-4.962255 6.0017,-5.532427 9.98683,-4.348965 3.13281,0.930342 5.85392,3.164305 7.31258,6.003548 2.02597,3.943407 0.0348,13.886637 -7.11188,35.510277 -5.44353,16.47095 -9.1359,28.3469 -8.88987,28.59294 0.11231,0.11231 2.35763,-3.40671 4.9896,-7.82006 14.24978,-23.89432 27.55157,-42.44583 37.73902,-52.633299 5.87462,-5.874654 6.32179,-6.184183 8.43756,-5.840829 2.79356,0.453329 6.50002,2.704943 7.85375,4.770991 0.57398,0.876009 1.00461,2.837543 0.97261,4.430673 -0.0613,3.038814 -0.77693,5.213504 -9.50105,28.858834 -7.06292,19.14302 -9.86227,28.34499 -12.18532,40.05545 -1.5881,8.00548 -2.10073,9.56999 -3.5416,10.80811 -1.2466,1.07116 -1.66739,2.03738 -1.61788,3.71506 l 0.0668,2.26741 0.52154,-2.20928 c 0.28691,-1.2151 0.91872,-2.45615 1.40406,-2.75791 0.71285,-0.44318 0.94926,0.80379 1.22987,6.48678 0.2917,5.90849 0.63446,7.62235 2.13992,10.69937 2.12967,4.35286 4.9885,6.11311 9.04482,5.56904 2.97433,-0.39894 3.46393,0.85238 0.97233,2.48495 -2.51691,1.64915 -7.44982,1.83089 -11.41082,0.42037 z m -9.95355,-30.49994 c 0.93118,-10.56103 3.12954,-21.56252 6.5814,-32.93657 1.46006,-4.81077 2.52758,-8.87389 2.37242,-9.02911 -0.64373,-0.64371 -4.65028,12.36174 -7.18817,23.3331 -2.29452,9.91927 -3.4078,19.11034 -3.12125,25.76962 0.15829,3.67895 0.61305,1.28471 1.3556,-7.13704 z m 1.79222,1.79789 c -0.16445,-0.62926 -0.29897,-0.11438 -0.29897,1.14409 0,1.25852 0.13458,1.77337 0.29897,1.14412 0.16444,-0.62927 0.16444,-1.65895 0,-2.28821 z m 0.8569,-4.73989 c 0,-0.35956 -0.12983,-0.65376 -0.28834,-0.65376 -0.15859,0 -0.4701,0.2942 -0.69234,0.65376 -0.22225,0.35959 -0.0925,0.65378 0.28828,0.65378 0.38083,0 0.6924,-0.29419 0.6924,-0.65378 z m 0.45301,-5.70807 c -0.16577,-0.63611 -0.31226,-0.27396 -0.3256,0.80477 -0.0139,1.07873 0.12232,1.59918 0.3014,1.15656 0.17908,-0.44263 0.18997,-1.32523 0.0243,-1.96133 z M 89.264378,143.46663 c 1.554136,-4.72695 5.677901,-16.68482 8.356666,-24.23205 0.307676,-0.86689 0.23515,-1.05936 -0.230482,-0.6114 -1.827498,1.75828 -11.515844,30.69403 -13.510646,40.35174 -1.747156,8.45849 -1.073514,7.85213 1.250083,-1.12526 1.209932,-4.67447 3.070338,-11.14685 4.134379,-14.38303 z m 1.86836,13.93358 c -0.208721,-0.52155 -0.363597,-0.36664 -0.394984,0.39498 -0.02856,0.68919 0.12608,1.07532 0.343382,0.85808 0.21722,-0.21724 0.240443,-0.78112 0.05155,-1.25306 z m 1.439494,-5.10763 c 0.04876,-0.8717 -0.01532,-0.8717 -0.578531,0 -0.348606,0.53936 -0.608943,1.71617 -0.5786,2.6151 l 0.05503,1.63444 0.523432,-1.63444 c 0.28788,-0.89893 0.548203,-2.07574 0.578531,-2.6151 z m 1.290875,-4.57641 c 0,-0.61814 -0.207732,-0.49731 -0.561856,0.32688 -0.309068,0.71914 -0.561938,1.74885 -0.561938,2.28822 0,0.61812 0.207746,0.49727 0.561938,-0.32689 0.309,-0.71915 0.561856,-1.74886 0.561856,-2.28821 z M 131.16419,136.2751 c 0.0195,-0.35957 -0.24923,-0.21248 -0.59778,0.3269 -0.34861,0.53935 -0.61759,1.42194 -0.59785,1.96132 0.0376,1.03549 1.12757,-1.04984 1.19563,-2.28822 z m -38.471673,-9.50208 c 1.858051,-5.20156 3.799008,-10.33999 4.313315,-11.41871 0.817232,-1.7141 0.815908,-1.81284 -0.0098,-0.78341 -0.977417,1.21755 -8.270403,20.17915 -8.270403,21.50302 0,1.50627 0.659975,-0.041 3.96769,-9.3009 z m 4.127051,0.31527 c 0.223224,-0.5818 0.113539,-0.84422 -0.256979,-0.61518 -0.355448,0.21968 -0.646239,0.67626 -0.646239,1.01462 0,0.94041 0.468557,0.73317 0.903218,-0.39944 z"
     id="path5" /></svg>
